<svg width="0" height="0" class="hidden">
  <symbol enable-background="new 0 0 780 500" version="1.1" xml:space="preserve" xmlns="http://www.w3.org/2000/svg" viewBox="0 -140 780 780" id="mastercard">
    <path d="M53.385,15h671.729c21.201,0,38.386,16.853,38.386,37.64v395.22   c0,20.788-17.185,37.64-38.386,37.64H53.385C32.186,485.5,15,468.648,15,447.86V52.64C15,31.853,32.186,15,53.385,15z" fill="none" stroke="#393939" stroke-width="30"></path>
    <path d="m704.94 250.23c0 105.73-87.905 191.78-195.95 191.78-45.065 0-86.609-15.002-119.75-40.09-33.123 25.088-74.667 40.09-119.73 40.09-108.04 0-195.94-86.049-195.94-191.78 0-105.74 87.902-191.74 195.94-191.74 45.065 0 86.61 14.945 119.73 40.069 33.143-25.124 74.687-40.069 119.75-40.069 108.04 0 195.95 86.008 195.95 191.74zm-196.23-174.81c-39.747 0-76.441 12.744-106.09 34.25 26.886 24.488 46.771 56.288 56.271 92.126h-18.16c-9.304-31.684-27.491-59.657-51.777-81.184-24.26 21.527-42.46 49.5-51.729 81.184h-18.188c9.523-35.838 29.407-67.638 56.294-92.126-29.662-21.506-66.342-34.25-106.11-34.25-98.521 0-178.39 78.16-178.39 174.6 0 96.413 79.869 174.6 178.39 174.6 39.767 0 76.447-12.744 106.11-34.248-25.299-23.059-44.385-52.603-54.475-85.856h18.364c9.755 29.118 27.074 54.819 49.734 74.91 22.685-20.091 40.026-45.792 49.782-74.91h18.358c-10.107 33.255-29.188 62.798-54.475 85.856 29.645 21.504 66.339 34.248 106.09 34.248 98.521 0 178.39-78.185 178.39-174.6 1e-3 -96.438-79.868-174.6-178.39-174.6z" fill="#393939" stroke="#979797"></path>
    <path d="m197.07 208.11h-28.565l-17.852 52.083-0.743-52.083h-26.472l-14.371 84.15h17.227l11.064-64.29 1.545 64.29h12.551l23.521-64.674-10.539 64.674h18.398l14.236-84.15zm47.412 84.071h-15.25l0.355-7.101c-4.655 5.606-10.854 8.289-19.277 8.289-9.991 0-16.795-7.635-16.795-18.677 0-16.687 11.866-26.386 32.279-26.386 2.092 0 4.769 0.19 7.506 0.534 0.569-2.277 0.707-3.233 0.707-4.458 0-4.515-3.19-6.218-11.793-6.218-8.992-0.115-16.421 2.087-19.47 3.082 0.195-1.148 2.562-15.385 2.562-15.385 9.151-2.64 15.208-3.635 22.014-3.635 15.797 0 24.167 6.926 24.147 20.053 0.02 3.521-0.568 7.863-1.488 13.588-1.602 9.889-5.024 31.128-5.495 36.312v2e-3zm-12.926-30.165c-1.935-0.193-2.778-0.269-4.107-0.269-10.441 0-15.702 3.498-15.702 10.389 0 4.271 2.582 6.984 6.57 6.984 7.51 0 12.903-6.984 13.239-17.104zm253.85-55.787c-24.383 0-41.435 21.008-41.435 51.09 0 22.347 12.342 36.316 32.147 36.316 5.082 0 9.48-0.651 16.246-2.487l3.226-19.155c-6.081 2.93-11.084 4.325-15.625 4.325-10.694 0-17.149-7.732-17.149-20.496 0-18.54 9.605-31.532 23.348-31.532 5.104 0 9.875 1.302 16.443 4.556l3.011-18.253c-2.695-1.035-12.18-4.364-20.212-4.364zm66.176 85.952h-15.229l0.352-7.101c-4.674 5.606-10.892 8.289-19.301 8.289-9.97 0-16.814-7.635-16.814-18.677 0-16.687 11.908-26.386 32.3-26.386 2.093 0 4.772 0.19 7.513 0.534 0.562-2.277 0.701-3.233 0.701-4.458 0-4.515-3.187-6.218-11.773-6.218-9.011-0.115-16.42 2.087-19.473 3.082 0.177-1.148 2.544-15.385 2.544-15.385 9.168-2.64 15.228-3.635 21.993-3.635 15.82 0 24.19 6.926 24.169 20.053 0.038 3.521-0.566 7.863-1.486 13.588-1.583 9.889-5.021 31.128-5.494 36.312v2e-3zm-12.933-30.165c-1.916-0.193-2.776-0.269-4.126-0.269-10.422 0-15.702 3.498-15.702 10.389 0 4.271 2.583 6.984 6.612 6.984 7.49 0 12.904-6.984 13.216-17.104zm-203.63 14.306c-1.232 0.423-2.854 0.649-4.946 0.649-4.379 0-6.314-1.527-6.314-5.07 0.04-2.179 3.07-18.367 5.183-31.361h9.439l2.505-16.456h-9.406l2.131-10.328h-18.282s-6.919 40.277-7.955 46.647c-1.174 7.291-2.658 15.232-2.544 18.254 0 9.741 5.124 15.042 14.526 15.042 4.267 0 8.19-0.691 13.241-2.22l2.422-15.157zm56.206 14.29c-6.295 1.877-12.36 2.757-18.77 2.757-20.494-0.043-31.166-10.505-31.166-30.539 0-23.384 13.587-40.605 32.025-40.605 15.074 0 24.716 9.625 24.716 24.778 0 5.013-0.685 9.893-2.271 16.84h-36.406c-1.231 9.891 5.263 14.024 15.899 14.024 6.546 0 12.434-1.302 19.003-4.285l-3.03 17.03zm-9.587-40.141c0.118-1.416 1.933-12.249-8.507-12.249-5.828 0-10.01 4.384-11.689 12.249h20.196zm-122.59-5.093c0 8.669 4.26 14.62 13.998 19.117 7.45 3.443 8.603 4.438 8.603 7.56 0 4.243-3.285 6.159-10.578 6.159-5.474 0-10.597-0.806-16.484-2.678 0 0-2.421 15.077-2.54 15.806 4.205 0.882 7.918 1.718 19.161 2.028 19.413 0 28.371-7.254 28.371-22.867 0-9.432-3.736-14.905-12.967-19.061-7.7-3.482-8.6-4.246-8.6-7.441 0-3.713 3.069-5.588 9.032-5.588 3.596 0 8.543 0.384 13.197 1.035l2.622-15.883c-4.772-0.727-11.985-1.339-16.19-1.339-20.588-1e-3 -27.704 10.504-27.625 23.152zm396.1 46.883h-17.418l0.879-6.369c-5.065 5.264-10.243 7.559-16.97 7.559-13.376 0-22.212-11.271-22.212-28.377 0-22.792 13.703-41.963 29.93-41.963 7.121 0 12.553 2.832 17.582 9.32l4.065-24.319h18.147l-14.003 84.149zm-27.1-15.683c8.562 0 14.604-9.514 14.604-23.061 0-8.706-3.42-13.414-9.76-13.414-8.348 0-14.272 9.511-14.272 22.963 0 8.975 3.171 13.512 9.428 13.512zm-56.582-52.672c-2.306 21.164-6.394 42.613-9.58 63.815l-0.842 4.61h18.38c6.589-41.845 8.19-50.016 18.495-48.984 1.64-8.591 4.69-16.07 6.997-19.858-7.717-1.573-12.023 2.715-17.631 10.81 0.447-3.522 1.25-6.909 1.075-10.393h-16.894zm-161.19 0c-2.312 21.164-6.416 42.613-9.603 63.815l-0.843 4.61h18.398c6.59-41.845 8.173-50.016 18.476-48.984 1.662-8.591 4.731-16.07 7.002-19.858-7.686-1.573-12.021 2.715-17.638 10.81 0.45-3.522 1.249-6.909 1.095-10.393h-16.887z" fill="#393939"></path>
  </symbol>
  <symbol version="1.1" id="card" xmlns="http://www.w3.org/2000/svg" xmlns:xlink="http://www.w3.org/1999/xlink" x="0px" y="0px" enable-background="new 0 0 92 92" xml:space="preserve" viewBox="0 0 92 92">
    <path id="XMLID_2192_" d="M92,23.4c0-4.1-3.3-7.4-7.4-7.4H7.4C3.3,16,0,19.3,0,23.4v45.3C0,72.7,3.3,76,7.4,76h77.3
	c4.1,0,7.4-3.3,7.4-7.4V23.4z M84,24v7H8v-7H84z M8,68V43h76v25H8z M76.5,55c0,2.2-1.8,4-4,4h-19c-2.2,0-4-1.8-4-4s1.8-4,4-4h19
	C74.7,51,76.5,52.8,76.5,55z"></path>
  </symbol>
  <symbol version="1.1" id="chevron" xmlns="http://www.w3.org/2000/svg" xmlns:xlink="http://www.w3.org/1999/xlink" x="0px" y="0px" xml:space="preserve" viewBox="0 0 485 485">
    <g>
      <path d="M413.974,71.026C368.171,25.225,307.274,0,242.5,0S116.829,25.225,71.026,71.026C25.225,116.829,0,177.726,0,242.5
		s25.225,125.671,71.026,171.474C116.829,459.775,177.726,485,242.5,485s125.671-25.225,171.474-71.026
		C459.775,368.171,485,307.274,485,242.5S459.775,116.829,413.974,71.026z M242.5,455C125.327,455,30,359.673,30,242.5
		S125.327,30,242.5,30S455,125.327,455,242.5S359.673,455,242.5,455z"></path>
      <polygon points="193.228,135.589 299.791,242.5 193.228,349.411 214.476,370.589 342.148,242.5 214.476,114.411 	"></polygon>
    </g>
    <g></g>
    <g></g>
    <g></g>
    <g></g>
    <g></g>
    <g></g>
    <g></g>
    <g></g>
    <g></g>
    <g></g>
    <g></g>
    <g></g>
    <g></g>
    <g></g>
    <g></g>
  </symbol>
  <symbol fill="#000000" xmlns="http://www.w3.org/2000/svg" viewBox="0 0 24 24" id="facebook">
    <path d="M17.525,9H14V7c0-1.032,0.084-1.682,1.563-1.682h1.868v-3.18C16.522,2.044,15.608,1.998,14.693,2 C11.98,2,10,3.657,10,6.699V9H7v4l3-0.001V22h4v-9.003l3.066-0.001L17.525,9z"></path>
  </symbol>
  <symbol version="1.1" id="visacard" xmlns="http://www.w3.org/2000/svg" xmlns:xlink="http://www.w3.org/1999/xlink" x="0px" y="0px" xml:space="preserve" viewBox="0 0 490 490">
    <g>
      <g>
        <rect y="162.6" width="490" height="52.7"></rect>
        <path d="M459.1,93.9H30.9C14,93.9,0,107.9,0,124.8v17.3h490v-17.3C490,107.9,476,93.9,459.1,93.9z"></path>
        <g>
          <polygon points="331.2,323.5 353,323.5 342.1,298.7 			"></polygon>
          <path d="M0,235.5v129.7c0,16.9,14,30.9,30.9,30.9h428.2c16.9,0,30.9-14,30.9-30.9V235.5H0z M171.1,277.9l-24.5,80
				c-1.1,3.5-4.7,5.9-8.8,5.9s-7.8-2.4-8.8-5.9l-24.5-80c-1.3-4.3,1.6-8.7,6.5-9.8c4.9-1.1,9.9,1.4,11.2,5.7l15.6,51.1l15.6-51.1
				c1.3-4.3,6.3-6.8,11.2-5.7C169.5,269.2,172.4,273.6,171.1,277.9z M206.9,355.8c0,4.4-4.1,8-9.1,8s-9.1-3.6-9.1-8v-80
				c0-4.4,4.1-8,9.1-8s9.1,3.6,9.1,8V355.8z M254,363.8c-8.8,0-17.3-3.2-23.3-8.8c-3.5-3.2-3.3-8.3,0.4-11.3s9.5-2.9,12.9,0.3
				c2.6,2.4,6.2,3.8,10,3.8c7.6,0,13.7-5.4,13.7-12s-6.1-12-13.7-12c-17.6,0-32-12.6-32-28s14.4-28,32-28c8.8,0,17.3,3.2,23.3,8.8
				c3.5,3.2,3.3,8.3-0.4,11.3c-3.7,3-9.5,2.9-12.9-0.3c-2.6-2.4-6.2-3.8-10-3.8c-7.6,0-13.7,5.4-13.7,12s6.1,12,13.7,12
				c17.6,0,32,12.6,32,28C286,351.3,271.7,363.8,254,363.8z M380,362.7c-4.7,1.6-10-0.5-11.8-4.6l-8.2-18.6h-35.8l-8.2,18.6
				c-2.3,4.8-6.8,6.2-11.8,4.6c-4.7-1.5-7.1-6.2-5.3-10.3l34.6-78.9c1.4-3.1,4.8-5.1,8.5-5.1c3.8,0,7.2,2,8.5,5.1l34.6,78.9
				C387,356.5,384.7,361.2,380,362.7z"></path>
        </g>
      </g>
    </g>
    <g></g>
    <g></g>
    <g></g>
    <g></g>
    <g></g>
    <g></g>
    <g></g>
    <g></g>
    <g></g>
    <g></g>
    <g></g>
    <g></g>
    <g></g>
    <g></g>
    <g></g>
  </symbol>
  <symbol xmlns="http://www.w3.org/2000/svg" viewBox="0 -140 780 780" id="paypal">
    <path d="M55 15h670c22.091 0 40 17.909 40 40v391c0 22.092-17.909 40-40 40H55c-22.092 0-40-17.908-40-40V55c0-22.091 17.908-40 40-40z" fill="none" stroke="#393939" stroke-width="30"></path>
    <g fill="#393939">
      <path d="M168.379 169.853c-8.399-5.774-19.359-8.668-32.88-8.668H83.153c-4.145 0-6.435 2.073-6.87 6.215L55.018 300.883c-.221 1.311.107 2.51.981 3.6.869 1.092 1.962 1.635 3.271 1.635h24.864c4.361 0 6.758-2.068 7.198-6.215l5.888-35.986c.215-1.744.982-3.162 2.291-4.254 1.308-1.09 2.944-1.803 4.907-2.13 1.963-.324 3.814-.487 5.562-.487 1.743 0 3.814.11 6.217.327 2.397.218 3.925.324 4.58.324 18.756 0 33.478-5.285 44.167-15.866 10.684-10.577 16.032-25.243 16.032-44.004 0-12.867-4.202-22.191-12.597-27.974zm-26.99 40.08c-1.094 7.635-3.926 12.649-8.506 15.049-4.581 2.403-11.124 3.598-19.629 3.598l-10.797.327 5.563-35.007c.434-2.397 1.851-3.597 4.252-3.597h6.218c8.72 0 15.049 1.257 18.975 3.761 3.924 2.51 5.233 7.801 3.924 15.869zM720.793 161.185h-24.207c-2.406 0-3.822 1.2-4.254 3.6l-21.266 136.099-.328.654c0 1.096.436 2.127 1.311 3.109.867.98 1.963 1.471 3.27 1.471h21.594c4.139 0 6.43-2.068 6.871-6.215L725.05 166.09v-.325c-.001-3.053-1.423-4.58-4.257-4.58zM428.31 213.856c0-1.088-.439-2.126-1.305-3.106-.875-.981-1.859-1.474-2.945-1.474h-25.193c-2.404 0-4.366 1.096-5.889 3.271l-34.679 51.04-14.395-49.075c-1.095-3.487-3.492-5.236-7.197-5.236h-24.541c-1.093 0-2.074.492-2.941 1.474-.875.98-1.309 2.019-1.309 3.106 0 .44 2.127 6.871 6.379 19.303 4.252 12.435 8.832 25.849 13.74 40.245 4.908 14.393 7.469 22.031 7.688 22.898-17.886 24.43-26.826 37.517-26.826 39.259 0 2.838 1.416 4.254 4.253 4.254h25.192c2.398 0 4.36-1.088 5.889-3.27l83.427-120.399c.435-.433.652-1.193.652-2.29zM662.887 209.276H638.02c-3.055 0-4.904 3.6-5.557 10.798-5.678-8.721-16.031-13.088-31.084-13.088-15.703 0-29.066 5.89-40.076 17.668-11.016 11.778-16.521 25.631-16.521 41.551 0 12.871 3.761 23.121 11.284 30.752 7.525 7.639 17.613 11.451 30.266 11.451 6.324 0 12.758-1.311 19.301-3.926 6.543-2.617 11.664-6.105 15.379-10.469 0 .219-.223 1.199-.656 2.943-.439 1.748-.654 3.059-.654 3.926 0 3.494 1.414 5.234 4.254 5.234h22.576c4.137 0 6.541-2.068 7.193-6.215l13.416-85.39c.215-1.309-.113-2.507-.982-3.599-.876-1.089-1.963-1.636-3.272-1.636zm-42.695 64.453c-5.561 5.453-12.268 8.178-20.119 8.178-6.328 0-11.449-1.742-15.377-5.234-3.928-3.484-5.891-8.283-5.891-14.395 0-8.065 2.727-14.886 8.18-20.447 5.447-5.562 12.215-8.343 20.285-8.343 6.102 0 11.174 1.8 15.213 5.397 4.031 3.6 6.053 8.563 6.053 14.889-.001 7.851-2.782 14.505-8.344 19.955zM291.231 209.276h-24.865c-3.058 0-4.908 3.6-5.563 10.798-5.889-8.721-16.25-13.088-31.081-13.088-15.704 0-29.065 5.89-40.078 17.668-11.016 11.778-16.521 25.631-16.521 41.551 0 12.871 3.763 23.121 11.288 30.752 7.525 7.639 17.61 11.451 30.262 11.451 6.104 0 12.433-1.311 18.975-3.926 6.543-2.617 11.778-6.105 15.704-10.469-.875 2.617-1.309 4.908-1.309 6.869 0 3.494 1.417 5.234 4.253 5.234h22.574c4.141 0 6.543-2.068 7.198-6.215l13.413-85.39c.215-1.309-.111-2.507-.981-3.599-.873-1.089-1.963-1.636-3.269-1.636zm-42.696 64.615c-5.563 5.35-12.382 8.016-20.447 8.016-6.329 0-11.4-1.742-15.214-5.234-3.819-3.484-5.726-8.283-5.726-14.395 0-8.065 2.725-14.886 8.18-20.447 5.449-5.562 12.211-8.343 20.284-8.343 6.104 0 11.175 1.8 15.214 5.397 4.032 3.6 6.052 8.563 6.052 14.889 0 8.07-2.781 14.779-8.343 20.117zM540.036 169.853c-8.398-5.774-19.355-8.668-32.879-8.668H455.14c-4.365 0-6.766 2.073-7.199 6.215l-21.264 133.483c-.221 1.311.105 2.51.98 3.6.867 1.092 1.963 1.635 3.271 1.635h26.826c2.617 0 4.361-1.416 5.234-4.252l5.891-37.949c.215-1.744.98-3.162 2.289-4.254 1.309-1.09 2.943-1.803 4.908-2.13 1.963-.324 3.813-.487 5.563-.487 1.742 0 3.814.11 6.213.327 2.4.218 3.93.324 4.58.324 18.76 0 33.48-5.285 44.168-15.866 10.687-10.577 16.03-25.243 16.03-44.004.001-12.867-4.2-22.191-12.594-27.974zm-33.533 53.82c-4.799 3.271-11.998 4.906-21.592 4.906l-10.471.327 5.564-35.007c.432-2.397 1.848-3.597 4.252-3.597h5.887c4.797 0 8.613.218 11.453.653 2.832.439 5.561 1.799 8.178 4.089 2.619 2.29 3.926 5.618 3.926 9.979 0 9.162-2.402 15.376-7.197 18.65z"></path>
    </g>
  </symbol>
  <symbol id="menu" enable-background="new 0 0 24 24" xmlns="http://www.w3.org/2000/svg" viewBox="0 0 24 24">
    <g>
      <path d="m21.5 24h-19c-1.379 0-2.5-1.122-2.5-2.5v-19c0-1.378 1.121-2.5 2.5-2.5h19c1.379 0 2.5 1.122 2.5 2.5v19c0 1.378-1.121 2.5-2.5 2.5zm-19-23c-.827 0-1.5.673-1.5 1.5v19c0 .827.673 1.5 1.5 1.5h19c.827 0 1.5-.673 1.5-1.5v-19c0-.827-.673-1.5-1.5-1.5z"></path>
    </g>
    <g>
      <path d="m16.5 8h-9c-.276 0-.5-.224-.5-.5s.224-.5.5-.5h9c.276 0 .5.224.5.5s-.224.5-.5.5z"></path>
    </g>
    <g>
      <path d="m16.5 12.5h-9c-.276 0-.5-.224-.5-.5s.224-.5.5-.5h9c.276 0 .5.224.5.5s-.224.5-.5.5z"></path>
    </g>
    <g>
      <path d="m16.5 17h-9c-.276 0-.5-.224-.5-.5s.224-.5.5-.5h9c.276 0 .5.224.5.5s-.224.5-.5.5z"></path>
    </g>
  </symbol>
  <symbol fill="#000000" xmlns="http://www.w3.org/2000/svg" viewBox="0 0 30 30" id="twitter">
    <path d="M28,6.937c-0.957,0.425-1.985,0.711-3.064,0.84c1.102-0.66,1.947-1.705,2.345-2.951c-1.03,0.611-2.172,1.055-3.388,1.295 c-0.973-1.037-2.359-1.685-3.893-1.685c-2.946,0-5.334,2.389-5.334,5.334c0,0.418,0.048,0.826,0.138,1.215 c-4.433-0.222-8.363-2.346-10.995-5.574C3.351,6.199,3.088,7.115,3.088,8.094c0,1.85,0.941,3.483,2.372,4.439 c-0.874-0.028-1.697-0.268-2.416-0.667c0,0.023,0,0.044,0,0.067c0,2.585,1.838,4.741,4.279,5.23 c-0.447,0.122-0.919,0.187-1.406,0.187c-0.343,0-0.678-0.034-1.003-0.095c0.679,2.119,2.649,3.662,4.983,3.705 c-1.825,1.431-4.125,2.284-6.625,2.284c-0.43,0-0.855-0.025-1.273-0.075c2.361,1.513,5.164,2.396,8.177,2.396 c9.812,0,15.176-8.128,15.176-15.177c0-0.231-0.005-0.461-0.015-0.69C26.38,8.945,27.285,8.006,28,6.937z"></path>
  </symbol>
  <symbol fill="#000000" xmlns="http://www.w3.org/2000/svg" viewBox="0 0 50 50" id="youtube">
    <path d="M 9 4 C 6.24 4 4 6.24 4 9 L 4 41 C 4 43.76 6.24 46 9 46 L 41 46 C 43.76 46 46 43.76 46 41 L 46 9 C 46 6.24 43.76 4 41 4 L 9 4 z M 15 8 L 17.400391 8 L 19 12 L 20.599609 8 L 23 8 L 20 15 L 20 19 L 18 19 L 18 14.990234 C 17.4 13.380234 15.41 9.01 15 8 z M 25 11 C 25.89 11 26.770078 11.269219 27.330078 11.949219 C 27.760078 12.439219 28 13.229531 28 14.269531 L 28 15.730469 C 28 16.770469 27.800859 17.490469 27.380859 17.980469 C 26.820859 18.650469 25.89 19 25 19 C 24.11 19 23.200625 18.650469 22.640625 17.980469 C 22.210625 17.490469 22 16.770469 22 15.730469 L 22 14.279297 C 22 13.239297 22.229922 12.439219 22.669922 11.949219 C 23.229922 11.269219 23.99 11 25 11 z M 29 11 L 31 11 L 31 17 C 31.05 17.27 31.339375 17.390625 31.609375 17.390625 C 32.019375 17.390625 32.54 16.910859 33 16.380859 L 33 11 L 35 11 L 35 19 L 33 19 L 33 17.619141 C 32.19 18.409141 31.499844 19.000703 30.589844 18.970703 C 29.929844 18.950703 29.470234 18.710469 29.240234 18.230469 C 29.100234 17.950469 29 17.499844 29 16.839844 L 29 11 z M 25 12.619141 C 24.8625 12.619141 24.730859 12.649297 24.611328 12.701172 C 24.491797 12.753047 24.383594 12.827422 24.292969 12.919922 C 24.202344 13.012422 24.128906 13.122266 24.078125 13.244141 C 24.027344 13.366016 24 13.500625 24 13.640625 L 24 16.449219 C 24 16.729219 24.111719 16.984922 24.292969 17.169922 C 24.383594 17.262422 24.491797 17.336797 24.611328 17.388672 C 24.730859 17.440547 24.8625 17.470703 25 17.470703 C 25.1375 17.470703 25.269141 17.440547 25.388672 17.388672 C 25.747266 17.233047 26 16.869219 26 16.449219 L 26 13.640625 C 26 13.080625 25.55 12.619141 25 12.619141 z M 24.990234 22 L 25.009766 22 C 25.009766 22 31.719219 22.000312 36.199219 22.320312 C 36.829219 22.390313 38.190156 22.400391 39.410156 23.650391 C 40.370156 24.590391 40.679688 26.75 40.679688 26.75 C 40.679688 26.75 41 28.280547 41 30.810547 L 41 33.179688 C 41 35.709688 40.679688 37.240234 40.679688 37.240234 C 40.679688 37.240234 40.370156 39.399844 39.410156 40.339844 C 38.190156 41.589844 36.829219 41.599922 36.199219 41.669922 C 31.719219 41.989922 25 42 25 42 C 25 42 16.679141 41.919688 14.119141 41.679688 C 13.409141 41.549687 11.809844 41.589609 10.589844 40.349609 C 9.6298437 39.399609 9.3203125 37.240234 9.3203125 37.240234 C 9.3203125 37.240234 9 35.709688 9 33.179688 L 9 30.810547 C 9 28.280547 9.3203125 26.75 9.3203125 26.75 C 9.3203125 26.75 9.6298438 24.590391 10.589844 23.650391 C 11.809844 22.400391 13.170781 22.390312 13.800781 22.320312 C 18.280781 22.000312 24.990234 22 24.990234 22 z M 12 26 L 12 27.978516 L 14 27.978516 L 14 38 L 16 38 L 16 27.978516 L 18 27.978516 L 18 26 L 12 26 z M 25 26 L 25 38 L 27 38 L 27 36.75 C 27.631 37.531 28.453 38 29.125 38 C 29.877 38 30.533156 37.595313 30.785156 36.820312 C 30.904156 36.401313 30.992 36.01 31 35.125 L 31 32.375 C 31 31.387 30.866234 30.642656 30.740234 30.222656 C 30.488234 29.441656 29.878 29.005 29.125 29 C 28.145 28.993 27.75 29.5 27 30.375 L 27 26 L 25 26 z M 18 29 L 18 35.685547 C 18 36.407547 18.100469 36.891984 18.230469 37.208984 C 18.450469 37.722984 18.899062 38 19.539062 38 C 20.269062 38 21.21 37.485766 22 36.634766 L 22 38 L 24 38 L 24 29 L 22 29 L 22 35.269531 C 21.56 35.853531 20.919531 36.289062 20.519531 36.289062 C 20.259531 36.289062 20.05 36.179578 20 35.892578 L 20 29 L 18 29 z M 35.029297 29 C 34.021297 29 33.234063 29.317016 32.664062 29.916016 C 32.244062 30.358016 32 31.080578 32 32.017578 L 32 35.083984 C 32 36.014984 32.2685 36.666516 32.6875 37.103516 C 33.2585 37.702516 34.044172 38 35.076172 38 C 36.107172 38 36.918844 37.686781 37.464844 37.050781 C 37.704844 36.769781 37.858781 36.453563 37.925781 36.101562 C 37.943781 35.942563 38 35.511 38 35 L 36 35 L 36 35.798828 C 36 36.262828 35.552 36.638672 35 36.638672 C 34.448 36.638672 34 36.261828 34 35.798828 L 34 34 L 38 34 L 38 33.423828 L 38 31.978516 C 38 31.043516 37.770422 30.359016 37.357422 29.916016 C 36.804422 29.317016 36.019297 29 35.029297 29 z M 35 30.447266 C 35.552 30.447266 36 30.824109 36 31.287109 L 36 32.615234 L 34 32.615234 L 34 31.287109 C 34 30.823109 34.448 30.447266 35 30.447266 z M 28.220703 30.746094 C 28.765703 30.746094 29 31.081 29 32.125 L 29 34.875 C 29 35.919 28.765703 36.279297 28.220703 36.279297 C 27.909703 36.279297 27.316 36.066 27 35.75 L 27 31.375 C 27.316 31.063 27.909703 30.746094 28.220703 30.746094 z"></path>
  </symbol>
</svg>